<svg width="140" height="123" viewBox="0 0 140 123" fill="none" xmlns="http://www.w3.org/2000/svg">
<g id="Frame">
<path id="Vector" d="M0.0199367 108.783C0.0320754 108.834 0.0487922 108.885 0.0699098 108.933C0.0753518 108.964 0.0854601 108.995 0.0998997 109.023L7.37775 121.64L7.40774 121.67C7.42788 121.703 7.45134 121.733 7.47773 121.76C7.51772 121.8 7.5577 121.83 7.59769 121.87C7.62768 121.89 7.63769 121.92 7.66768 121.93C7.67941 121.938 7.69355 121.942 7.70764 121.94C7.81619 121.996 7.9357 122.027 8.05755 122.03H131.891C132.013 122.027 132.132 121.996 132.241 121.94C132.271 121.92 132.291 121.9 132.321 121.88C132.402 121.83 132.47 121.761 132.521 121.68C132.531 121.66 132.551 121.65 132.571 121.63L139.859 109.013C139.869 109.003 139.869 108.983 139.879 108.973C139.898 108.942 139.911 108.908 139.919 108.873C139.929 108.843 139.939 108.803 139.949 108.773C139.957 108.74 139.96 108.707 139.959 108.673C139.959 108.653 139.969 108.643 139.969 108.623C139.969 108.603 139.959 108.593 139.959 108.573C139.959 108.553 139.949 108.503 139.949 108.473C139.949 108.443 139.929 108.403 139.919 108.373C139.908 108.339 139.895 108.305 139.879 108.273C139.869 108.263 139.869 108.243 139.859 108.233L77.947 0.984404C77.9295 0.959016 77.9094 0.935556 77.887 0.914418C77.8557 0.869824 77.8187 0.829494 77.777 0.794442C77.6986 0.736715 77.6149 0.686503 77.5271 0.644472C77.475 0.62876 77.4214 0.618705 77.3671 0.614478C77.3372 0.614478 77.3072 0.594482 77.2672 0.594482H62.7015C62.6815 0.594482 62.6715 0.60448 62.6515 0.60448C62.6315 0.60448 62.5815 0.614478 62.5515 0.614478L62.4415 0.644472C62.4072 0.655177 62.3738 0.668548 62.3416 0.684464C62.3298 0.692416 62.3157 0.695958 62.3016 0.694462C62.2902 0.706812 62.2766 0.716976 62.2616 0.724456C62.2332 0.742 62.2064 0.762078 62.1816 0.784444C62.1525 0.808527 62.1257 0.835307 62.1016 0.864428C62.0816 0.894422 62.0616 0.914418 62.0416 0.944412C62.0293 0.955805 62.0191 0.969358 62.0117 0.984404L0.0898929 108.243C0.0754533 108.271 0.065345 108.302 0.0599029 108.333C0.0387702 108.381 0.022053 108.432 0.00992988 108.483C0.0016236 108.533 -0.00173507 108.583 -7.6939e-05 108.633C0.00992012 108.683 0.00993964 108.733 0.0199367 108.783ZM76.8173 2.16417L137.829 107.843H31.2807L37.6588 96.8053H117.345C117.469 96.8043 117.59 96.7698 117.695 96.7054C117.705 96.6954 117.725 96.7053 117.735 96.6953C117.761 96.6779 117.784 96.6578 117.805 96.6354C117.848 96.6015 117.888 96.5647 117.925 96.5254C117.955 96.4878 117.982 96.4476 118.005 96.4054C118.035 96.3674 118.056 96.3228 118.065 96.2754C118.086 96.2246 118.096 96.1702 118.095 96.1155C118.095 96.0855 118.115 96.0555 118.115 96.0155C118.115 95.9955 118.105 95.9855 118.105 95.9655C118.1 95.9147 118.09 95.8644 118.075 95.8155C118.063 95.7641 118.046 95.7139 118.025 95.6656C118.015 95.6555 118.015 95.6356 118.005 95.6256L64.0511 2.16417H76.8173ZM131.451 120.461H9.42714L62.7015 28.179L69.0796 39.2168L29.2313 108.233C29.2233 108.245 29.2198 108.259 29.2213 108.273C29.2002 108.321 29.1834 108.372 29.1713 108.423C29.1566 108.472 29.1465 108.522 29.1413 108.573C29.1413 108.593 29.1314 108.603 29.1314 108.623C29.1314 108.643 29.1513 108.683 29.1513 108.723C29.1565 108.777 29.1665 108.831 29.1813 108.883C29.2013 108.933 29.2213 108.973 29.2413 109.013C29.2656 109.054 29.2924 109.094 29.3213 109.133C29.3613 109.173 29.4013 109.203 29.4413 109.243C29.4713 109.263 29.4813 109.293 29.5112 109.303C29.5212 109.313 29.5412 109.303 29.5512 109.313C29.6591 109.372 29.7785 109.406 29.9011 109.413H137.809L131.451 120.461ZM101.41 95.2356H38.5586L69.9893 40.7965L101.41 95.2356ZM62.7015 2.95401L115.976 95.2356H103.23L63.3913 26.2194C63.3789 26.208 63.3687 26.1944 63.3613 26.1794C63.3313 26.1394 63.2913 26.0994 63.2613 26.0594C63.226 26.0208 63.1856 25.9872 63.1413 25.9594C63.1299 25.9471 63.1164 25.9369 63.1013 25.9294C63.073 25.915 63.0427 25.9049 63.0114 25.8994C62.963 25.8783 62.9128 25.8616 62.8614 25.8495C62.7619 25.8361 62.661 25.8361 62.5615 25.8495C62.5101 25.8616 62.4599 25.8783 62.4115 25.8994C62.3802 25.9049 62.3499 25.915 62.3216 25.9294C62.3102 25.9418 62.2966 25.952 62.2816 25.9594C62.2416 25.9894 62.2016 26.0294 62.1616 26.0594C62.1203 26.092 62.0863 26.1329 62.0617 26.1794C62.0493 26.1908 62.0391 26.2043 62.0317 26.2194L8.07756 119.681L1.69943 108.643L62.7015 2.95401Z" fill="white"/>
</g>
</svg>
