<svg width="30" height="31" viewBox="0 0 30 31" fill="none" xmlns="http://www.w3.org/2000/svg">
<g id="akar-icons:facebook-fill" clip-path="url(#clip0_102_562)">
<path id="Vector" fill-rule="evenodd" clip-rule="evenodd" d="M0.485901 15.4927C0.485901 22.7686 5.77023 28.8188 12.6814 30.0457V19.4758H9.02278V15.411H12.6814V12.1585C12.6814 8.4998 15.0388 6.46802 18.3731 6.46802C19.4292 6.46802 20.5683 6.63022 21.6244 6.79243V10.5328H19.7548C17.9658 10.5328 17.5597 11.4267 17.5597 12.5658V15.411H21.4622L20.8122 19.4758H17.5597V30.0457C24.4709 28.8188 29.7552 22.7698 29.7552 15.4927C29.7552 7.39854 23.1696 0.776367 15.1205 0.776367C7.07149 0.776367 0.485901 7.39854 0.485901 15.4927Z" fill="#3D445C"/>
</g>
<defs>
<clipPath id="clip0_102_562">
<rect width="29.2693" height="29.2693" fill="white" transform="translate(0.485901 0.776367)"/>
</clipPath>
</defs>
</svg>
