<svg width="30" height="31" viewBox="0 0 30 31" fill="none" xmlns="http://www.w3.org/2000/svg">
<g id="entypo-social:linkedin-with-circle" clip-path="url(#clip0_102_564)">
<path id="Vector" d="M15.0245 1.36157C7.26519 1.36157 0.97522 7.65154 0.97522 15.4108C0.97522 23.1701 7.26519 29.4601 15.0245 29.4601C22.7838 29.4601 29.0737 23.1701 29.0737 15.4108C29.0737 7.65154 22.7838 1.36157 15.0245 1.36157ZM11.5853 21.234H8.74036V12.0785H11.5853V21.234ZM10.1453 10.9546C9.24672 10.9546 8.66573 10.318 8.66573 9.53063C8.66573 8.72719 9.26428 8.10961 10.1819 8.10961C11.0995 8.10961 11.6614 8.72719 11.679 9.53063C11.679 10.318 11.0995 10.9546 10.1453 10.9546ZM21.9759 21.234H19.131V16.1601C19.131 14.9791 18.7183 14.1771 17.6894 14.1771C16.9036 14.1771 16.4367 14.7201 16.2304 15.2425C16.1543 15.4284 16.1352 15.6918 16.1352 15.9538V21.2325H13.2888V14.9981C13.2888 13.8552 13.2522 12.8995 13.2142 12.0771H15.686L15.8162 13.3488H15.8733C16.2479 12.7517 17.1655 11.8707 18.7007 11.8707C20.5725 11.8707 21.9759 13.1249 21.9759 15.8206V21.234V21.234Z" fill="#3D445C"/>
</g>
<defs>
<clipPath id="clip0_102_564">
<rect width="29.2693" height="29.2693" fill="white" transform="translate(0.389832 0.776367)"/>
</clipPath>
</defs>
</svg>
