<svg width="30" height="30" viewBox="0 0 30 30" fill="none" xmlns="http://www.w3.org/2000/svg">
<g id="icon">
<path id="Vector" d="M26.9639 20.9011L20.1954 14.1326L22.1101 12.2179L17.5367 7.64453L15.622 9.55923L8.85351 2.79071L3.08502 8.5592L9.85354 15.3277L4.04847 21.1328V25.7061H8.6218L14.4269 19.901L21.1954 26.6696L26.9639 20.9011V20.9011ZM11.5853 13.596L6.53636 8.5592L8.85351 6.24205L10.4023 7.79088L8.95107 9.24215L10.6706 10.9617L12.1219 9.51045L13.8903 11.2788L11.5853 13.596V13.596ZM16.1586 18.1693L18.4758 15.8521L20.2441 17.6205L18.7929 19.0718L20.5124 20.7913L21.9637 19.3401L23.5125 20.8889L21.1954 23.206L16.1586 18.1693V18.1693ZM18.8453 6.34327L21.9405 3.24682L26.5114 7.81771L23.4162 10.9142L18.8453 6.34327Z" fill="#F9995D"/>
</g>
</svg>
