<svg width="30" height="30" viewBox="0 0 30 30" fill="none" xmlns="http://www.w3.org/2000/svg">
<g id="icon">
<path id="Vector" d="M26.2994 9.85194C26.9463 9.85194 27.5667 10.1089 28.0241 10.5663C28.4815 11.0238 28.7385 11.6442 28.7385 12.291V17.1693C28.7385 17.8162 28.4815 18.4365 28.0241 18.894C27.5667 19.3514 26.9463 19.6084 26.2994 19.6084H25.0042C24.7069 21.9661 23.5594 24.1344 21.777 25.7061C19.9946 27.2779 17.6998 28.1452 15.3234 28.1452V25.7061C17.2641 25.7061 19.1253 24.9352 20.4975 23.5629C21.8698 22.1907 22.6407 20.3295 22.6407 18.3888V11.0715C22.6407 9.13082 21.8698 7.26963 20.4975 5.89736C19.1253 4.5251 17.2641 3.75417 15.3234 3.75417C13.3827 3.75417 11.5216 4.5251 10.1493 5.89736C8.77702 7.26963 8.00609 9.13082 8.00609 11.0715V19.6084H4.34743C3.70054 19.6084 3.08014 19.3514 2.62272 18.894C2.1653 18.4365 1.90833 17.8162 1.90833 17.1693V12.291C1.90833 11.6442 2.1653 11.0238 2.62272 10.5663C3.08014 10.1089 3.70054 9.85194 4.34743 9.85194H5.6426C5.94021 7.49441 7.08787 5.32651 8.87024 3.75499C10.6526 2.18348 12.9472 1.31638 15.3234 1.31638C17.6997 1.31638 19.9942 2.18348 21.7766 3.75499C23.559 5.32651 24.7066 7.49441 25.0042 9.85194H26.2994ZM10.1525 19.3462L11.4452 17.2778C12.6076 18.0059 13.9519 18.391 15.3234 18.3888C16.695 18.391 18.0393 18.0059 19.2016 17.2778L20.4943 19.3462C18.9446 20.3171 17.1522 20.8307 15.3234 20.8279C13.4946 20.8307 11.7022 20.3171 10.1525 19.3462Z" fill="#F9995D"/>
</g>
</svg>
