<svg width="30" height="30" viewBox="0 0 30 30" fill="none" xmlns="http://www.w3.org/2000/svg">
<g id="icon" clip-path="url(#clip0_102_429)">
<rect id="Rectangle 20" x="0.221741" y="12.3188" width="17.0737" height="17.0738" fill="#7595FD"/>
<path id="Vector" d="M25.8323 17.197C25.8323 16.5263 25.2835 15.9775 24.6128 15.9775H22.1737V18.4166H24.6128C25.2835 18.4166 25.8323 17.8678 25.8323 17.197ZM24.6128 20.8557H22.1737V23.2948H24.6128C25.2835 23.2948 25.8323 22.746 25.8323 22.0753C25.8323 21.4045 25.2835 20.8557 24.6128 20.8557ZM14.8563 17.197H12.4172V22.0753H14.8563C14.8563 23.4168 15.9539 24.5144 17.2955 24.5144H20.9541V14.7579H17.2955C15.9539 14.7579 14.8563 15.8555 14.8563 17.197Z" fill="white"/>
<path id="Vector_2" d="M6.31948 15.9774C6.31948 14.6359 7.41708 13.5383 8.75859 13.5383H10.5879C12.9417 13.5383 14.8564 11.6236 14.8564 9.2699C14.8564 6.91616 12.9417 5.00146 10.5879 5.00146H6.31948C5.64872 5.00146 5.09992 5.55026 5.09992 6.22102C5.09992 6.89177 5.64872 7.44057 6.31948 7.44057H10.5879C11.6001 7.44057 12.4172 8.25767 12.4172 9.2699C12.4172 10.2821 11.6001 11.0992 10.5879 11.0992H8.75859C6.06337 11.0992 3.88037 13.2822 3.88037 15.9774C3.88037 18.6727 6.06337 20.8557 8.75859 20.8557H11.1977V18.4166H8.75859C7.41708 18.4166 6.31948 17.319 6.31948 15.9774Z" fill="white"/>
</g>
<defs>
<clipPath id="clip0_102_429">
<rect width="29.2693" height="29.2693" fill="white" transform="translate(0.22168 0.123291)"/>
</clipPath>
</defs>
</svg>
