<svg width="30" height="30" viewBox="0 0 30 30" fill="none" xmlns="http://www.w3.org/2000/svg">
<g id="icon" clip-path="url(#clip0_102_417)">
<rect id="Rectangle 20" x="0.569214" y="12.3188" width="17.0737" height="17.0738" fill="#7595FD"/>
<path id="Vector" d="M22.5212 19.6361H20.0821V18.4166H10.3256V19.6361H7.88652V18.4166H3.0083V24.5143H27.3994V18.4166H22.5212V19.6361ZM24.9603 9.87968H21.3016V7.44057C21.3016 6.09906 20.204 5.00146 18.8625 5.00146H11.5452C10.2037 5.00146 9.10607 6.09906 9.10607 7.44057V9.87968H5.44741C4.1059 9.87968 3.0083 10.9773 3.0083 12.3188V17.197H7.88652V14.7579H10.3256V17.197H20.0821V14.7579H22.5212V17.197H27.3994V12.3188C27.3994 10.9773 26.3018 9.87968 24.9603 9.87968ZM18.8625 9.87968H11.5452V7.44057H18.8625V9.87968Z" fill="white"/>
</g>
<defs>
<clipPath id="clip0_102_417">
<rect width="29.2693" height="29.2693" fill="white" transform="translate(0.569214 0.123291)"/>
</clipPath>
</defs>
</svg>
