<svg width="30" height="30" viewBox="0 0 30 30" fill="none" xmlns="http://www.w3.org/2000/svg">
<g id="icon" clip-path="url(#clip0_102_405)">
<rect id="Rectangle 20" x="0.57843" y="12.7521" width="17.0737" height="17.0738" fill="#7595FD"/>
<path id="Vector" d="M24.3598 4.21528C23.5513 4.21593 22.7762 4.53736 22.2046 5.10899C21.6329 5.68063 21.3115 6.45575 21.3109 7.26417C21.3109 7.69955 21.406 8.11298 21.5719 8.48982L19.1876 11.1716C18.3777 10.6125 17.4168 10.3131 16.4327 10.3131C15.5302 10.3131 14.696 10.5765 13.9704 11.0033L11.1971 8.23127L11.1691 8.25932C11.4081 7.77394 11.5544 7.23368 11.5544 6.65439C11.5544 5.93078 11.3399 5.22341 10.9378 4.62175C10.5358 4.02008 9.96443 3.55114 9.29589 3.27423C8.62736 2.99731 7.89173 2.92486 7.18202 3.06603C6.4723 3.2072 5.82039 3.55565 5.30872 4.06733C4.79705 4.579 4.44859 5.23091 4.30742 5.94062C4.16625 6.65033 4.23871 7.38597 4.51562 8.0545C4.79254 8.72303 5.26148 9.29444 5.86314 9.69646C6.4648 10.0985 7.17217 10.3131 7.89578 10.3131C8.47507 10.3131 9.01412 10.1667 9.50072 9.92767L9.47267 9.95572L12.2459 12.7278C11.7979 13.4717 11.559 14.3228 11.5544 15.1913C11.5544 16.4072 12.0179 17.5072 12.7557 18.3633L9.61292 21.5049C9.26067 21.3639 8.88497 21.2907 8.50556 21.289C6.82502 21.289 5.45668 22.6562 5.45668 24.3379C5.45668 26.0197 6.82502 27.3868 8.50556 27.3868C10.1861 27.3868 11.5544 26.0197 11.5544 24.3379C11.5544 23.9464 11.474 23.5745 11.3386 23.2293L14.7997 19.7682C15.3131 19.9512 15.857 20.0695 16.4327 20.0695C19.123 20.0695 21.3109 17.8816 21.3109 15.1913C21.3109 14.4156 21.1121 13.6924 20.7889 13.04L23.3707 10.1338C23.6829 10.2411 24.0122 10.3131 24.3598 10.3131C26.0415 10.3131 27.4086 8.94593 27.4086 7.26417C27.4086 5.5824 26.0415 4.21528 24.3598 4.21528ZM16.4327 17.6304C15.0875 17.6304 13.9936 16.5364 13.9936 15.1913C13.9936 13.8461 15.0875 12.7522 16.4327 12.7522C17.7778 12.7522 18.8718 13.8461 18.8718 15.1913C18.8718 16.5364 17.7778 17.6304 16.4327 17.6304Z" fill="white"/>
</g>
<defs>
<clipPath id="clip0_102_405">
<rect width="29.2693" height="29.2693" fill="white" transform="translate(0.57843 0.55658)"/>
</clipPath>
</defs>
</svg>
