<svg width="30" height="30" viewBox="0 0 30 30" fill="none" xmlns="http://www.w3.org/2000/svg">
<g id="icon" clip-path="url(#clip0_102_411)">
<rect id="Rectangle 20" x="0.221741" y="12.7521" width="17.0737" height="17.0738" fill="#7595FD"/>
<path id="Vector" d="M13.6368 7.87389H17.2955L21.3078 3.84936C21.4212 3.73505 21.556 3.64432 21.7047 3.58241C21.8533 3.52049 22.0127 3.48862 22.1737 3.48862C22.3347 3.48862 22.4941 3.52049 22.6427 3.58241C22.7913 3.64432 22.9262 3.73505 23.0396 3.84936L26.186 7.008C26.4131 7.2365 26.5406 7.5456 26.5406 7.86779C26.5406 8.18998 26.4131 8.49907 26.186 8.72757L23.3932 11.5325H13.6368V13.9717C13.6368 14.2951 13.5083 14.6053 13.2796 14.834C13.0509 15.0627 12.7407 15.1912 12.4172 15.1912C12.0938 15.1912 11.7836 15.0627 11.5549 14.834C11.3262 14.6053 11.1977 14.2951 11.1977 13.9717V10.313C11.1977 9.6661 11.4547 9.0457 11.9121 8.58828C12.3695 8.13086 12.9899 7.87389 13.6368 7.87389ZM6.31947 13.9717V18.8499L3.5267 21.6426C3.29955 21.8711 3.17206 22.1802 3.17206 22.5024C3.17206 22.8246 3.29955 23.1337 3.5267 23.3622L6.67314 26.5209C6.78652 26.6352 6.9214 26.7259 7.07001 26.7878C7.21863 26.8497 7.37803 26.8816 7.53903 26.8816C7.70002 26.8816 7.85942 26.8497 8.00804 26.7878C8.15665 26.7259 8.29154 26.6352 8.40491 26.5209L13.6368 21.289H18.515C18.8385 21.289 19.1487 21.1605 19.3774 20.9318C19.6061 20.7031 19.7346 20.3929 19.7346 20.0694V18.8499H20.9541C21.2776 18.8499 21.5878 18.7214 21.8165 18.4927C22.0452 18.264 22.1737 17.9538 22.1737 17.6303V16.4108H23.3932C23.7167 16.4108 24.0269 16.2823 24.2556 16.0536C24.4843 15.8249 24.6128 15.5147 24.6128 15.1912V13.9717H16.0759V15.1912C16.0759 15.8381 15.8189 16.4585 15.3615 16.9159C14.9041 17.3733 14.2837 17.6303 13.6368 17.6303H11.1977C10.5508 17.6303 9.9304 17.3733 9.47298 16.9159C9.01556 16.4585 8.75858 15.8381 8.75858 15.1912V11.5325L6.31947 13.9717Z" fill="#292E3D"/>
</g>
<defs>
<clipPath id="clip0_102_411">
<rect width="29.2693" height="29.2693" fill="white" transform="translate(0.22168 0.55658)"/>
</clipPath>
</defs>
</svg>
