<svg width="30" height="30" viewBox="0 0 30 30" fill="none" xmlns="http://www.w3.org/2000/svg">
<g id="icon" clip-path="url(#clip0_102_398)">
<rect id="Rectangle 20" x="0.569214" y="12.7521" width="17.0737" height="17.0738" fill="#7595FD"/>
<path id="Vector" d="M23.7297 2.99573H11.5574C10.2025 2.99573 9.10608 4.09211 9.10608 5.44703V12.3217L3.37174 17.9828C3.19992 18.1528 3.08246 18.3699 3.03427 18.6067C2.98607 18.8435 3.00931 19.0893 3.10104 19.3128C3.19277 19.5364 3.34885 19.7277 3.54947 19.8624C3.75009 19.9971 3.98621 20.0692 4.22787 20.0695V26.1672C4.22787 26.4907 4.35636 26.8009 4.58507 27.0296C4.81378 27.2583 5.12397 27.3868 5.44742 27.3868H24.9603C25.2837 27.3868 25.5939 27.2583 25.8226 27.0296C26.0513 26.8009 26.1798 26.4907 26.1798 26.1672V5.44581C26.1798 4.09211 25.0847 2.99573 23.7297 2.99573ZM13.8892 18.9853V24.9477H6.66697V18.1572L10.3098 14.5608L13.8892 18.2231V18.9853V18.9853ZM16.4234 11.5326H13.9843V9.0935H16.4234V11.5326ZM21.3016 21.289H18.8625V18.8499H21.3016V21.289ZM21.3016 16.4108H18.8625V13.9717H21.3016V16.4108ZM21.3016 11.5326H18.8625V9.0935H21.3016V11.5326Z" fill="#292E3D"/>
<path id="Vector_2" d="M9.10608 18.8499H11.5452V21.289H9.10608V18.8499Z" fill="#14171F"/>
</g>
<defs>
<clipPath id="clip0_102_398">
<rect width="29.2693" height="29.2693" fill="white" transform="translate(0.569214 0.55658)"/>
</clipPath>
</defs>
</svg>
