<svg width="30" height="31" viewBox="0 0 30 31" fill="none" xmlns="http://www.w3.org/2000/svg">
<g id="entypo-social:twitter-with-circle" clip-path="url(#clip0_102_566)">
<path id="Vector" d="M14.9284 1.36157C7.16912 1.36157 0.87915 7.65154 0.87915 15.4108C0.87915 23.1701 7.16912 29.4601 14.9284 29.4601C22.6877 29.4601 28.9777 23.1701 28.9777 15.4108C28.9777 7.65154 22.6877 1.36157 14.9284 1.36157ZM20.6432 12.8703C20.6491 12.9903 20.6506 13.1103 20.6506 13.2273C20.6506 16.886 17.8685 21.1022 12.7786 21.1022C11.2746 21.1047 9.80184 20.6728 8.53746 19.8583C8.75259 19.8846 8.97357 19.8949 9.19748 19.8949C10.4941 19.8949 11.6868 19.4544 12.6337 18.7109C12.0567 18.6996 11.4976 18.5085 11.0343 18.1644C10.571 17.8202 10.2267 17.3401 10.0492 16.7909C10.4636 16.8697 10.8905 16.8532 11.2976 16.7426C10.6713 16.6159 10.108 16.2766 9.70341 15.7821C9.29878 15.2875 9.07763 14.6683 9.07748 14.0293V13.9957C9.45066 14.202 9.87799 14.3279 10.3317 14.3425C9.74452 13.9517 9.32888 13.3513 9.16974 12.6641C9.0106 11.9769 9.11999 11.255 9.47554 10.6458C10.1706 11.5005 11.0374 12.1996 12.0199 12.698C13.0023 13.1964 14.0785 13.483 15.1787 13.5391C15.0388 12.9453 15.099 12.3221 15.3499 11.7661C15.6008 11.2101 16.0284 10.7526 16.5661 10.4647C17.1039 10.1768 17.7217 10.0746 18.3235 10.1741C18.9253 10.2735 19.4774 10.569 19.8939 11.0146C20.5132 10.8921 21.1071 10.6649 21.6501 10.3429C21.4437 10.984 21.0116 11.5285 20.434 11.8751C20.9825 11.809 21.5182 11.6615 22.0233 11.4375C21.6523 11.9935 21.1849 12.4787 20.6432 12.8703V12.8703Z" fill="#3D445C"/>
</g>
<defs>
<clipPath id="clip0_102_566">
<rect width="29.2693" height="29.2693" fill="white" transform="translate(0.293762 0.776367)"/>
</clipPath>
</defs>
</svg>
