<svg width="20" height="13" viewBox="0 0 20 13" fill="none" xmlns="http://www.w3.org/2000/svg">
<path id="Vector" fill-rule="evenodd" clip-rule="evenodd" d="M0.106219 6.60291C0.106219 6.78617 0.1778 6.96192 0.305216 7.09151C0.432633 7.22109 0.605447 7.29389 0.785641 7.29389L16.8105 7.29389L12.5342 11.6416C12.471 11.7058 12.4209 11.7821 12.3867 11.866C12.3526 11.95 12.335 12.0399 12.335 12.1308C12.335 12.2216 12.3526 12.3116 12.3867 12.3955C12.4209 12.4795 12.471 12.5557 12.5342 12.62C12.5974 12.6842 12.6724 12.7352 12.7549 12.77C12.8374 12.8047 12.9259 12.8226 13.0152 12.8226C13.1046 12.8226 13.193 12.8047 13.2756 12.77C13.3581 12.7352 13.4331 12.6842 13.4963 12.62L18.9317 7.09213C18.9949 7.02794 19.0451 6.95169 19.0794 6.86774C19.1136 6.78379 19.1313 6.6938 19.1313 6.60291C19.1313 6.51202 19.1136 6.42203 19.0794 6.33808C19.0451 6.25413 18.9949 6.17788 18.9317 6.11369L13.4963 0.585825C13.4331 0.521581 13.3581 0.470619 13.2756 0.43585C13.193 0.40108 13.1046 0.383185 13.0152 0.383185C12.9259 0.383185 12.8374 0.40108 12.7549 0.435849C12.6724 0.470619 12.5974 0.521581 12.5342 0.585825C12.471 0.65007 12.4209 0.726339 12.3867 0.810279C12.3526 0.894219 12.335 0.984185 12.335 1.07504C12.335 1.1659 12.3526 1.25586 12.3867 1.3398C12.4209 1.42374 12.471 1.50001 12.5342 1.56426L16.8105 5.91193L0.785641 5.91192C0.605447 5.91192 0.432633 5.98472 0.305216 6.11431C0.1778 6.24389 0.106219 6.41965 0.106219 6.60291Z" fill="white"/>
</svg>
