<svg width="20" height="13" viewBox="0 0 20 13" fill="none" xmlns="http://www.w3.org/2000/svg">
<path id="Vector" fill-rule="evenodd" clip-rule="evenodd" d="M19.7478 6.6029C19.7478 6.41964 19.6762 6.24389 19.5488 6.1143C19.4214 5.98472 19.2486 5.91192 19.0684 5.91192L3.04354 5.91192L7.31982 1.56425C7.38299 1.50001 7.4331 1.42374 7.46729 1.3398C7.50148 1.25586 7.51907 1.16589 7.51907 1.07503C7.51907 0.984179 7.50148 0.894213 7.46729 0.810273C7.4331 0.726333 7.38299 0.650063 7.31982 0.585818C7.25665 0.521574 7.18166 0.470612 7.09913 0.435843C7.01659 0.401074 6.92813 0.383179 6.83879 0.383179C6.74946 0.383179 6.661 0.401074 6.57846 0.435843C6.49593 0.470612 6.42093 0.521574 6.35776 0.585818L0.922384 6.11369C0.859112 6.17787 0.808912 6.25412 0.774661 6.33807C0.740409 6.42202 0.722778 6.51201 0.722778 6.6029C0.722778 6.69379 0.740409 6.78378 0.774661 6.86773C0.808912 6.95168 0.859112 7.02793 0.922384 7.09212L6.35776 12.62C6.42093 12.6842 6.49592 12.7352 6.57846 12.77C6.661 12.8047 6.74946 12.8226 6.83879 12.8226C6.92813 12.8226 7.01659 12.8047 7.09913 12.77C7.18166 12.7352 7.25665 12.6842 7.31982 12.62C7.38299 12.5557 7.4331 12.4795 7.46729 12.3955C7.50148 12.3116 7.51907 12.2216 7.51907 12.1308C7.51907 12.0399 7.50148 11.9499 7.46729 11.866C7.4331 11.7821 7.38299 11.7058 7.31982 11.6416L3.04354 7.29388L19.0684 7.29388C19.2486 7.29388 19.4214 7.22109 19.5488 7.0915C19.6762 6.96192 19.7478 6.78616 19.7478 6.6029Z" fill="white"/>
</svg>
